<?xml version="1.0" encoding="utf-8"?>
<svg version="1.1" id="Layer_1" xmlns:lucid="lucid"
	 xmlns="http://www.w3.org/2000/svg" xmlns:xlink="http://www.w3.org/1999/xlink" x="0px" y="0px" viewBox="0 0 323 364.6"
	 style="enable-background:new 0 0 323 364.6;" xml:space="preserve">
<style type="text/css">
	.st0{fill:#FFFFFF;stroke:#5E5E5E;stroke-width:3;}
	.st1{fill:none;stroke:#5E5E5E;stroke-width:2;}
	.st3{fill:#5E5E5E;stroke:#5E5E5E;stroke-width:2;}
	.st4{font-family:'Arial';font-size:30px;}
</style>
<g transform="translate(-160 -160)" lucid:page-tab-id="0_0">
	<path class="st0" d="M361.5,182.3c0,11.5-17.9,20.8-40,20.8s-40-9.3-40-20.8s17.9-20.8,40-20.8S361.5,170.8,361.5,182.3z"/>
	<path class="st0" d="M301.5,262.3c0,11.5-17.9,20.8-40,20.8s-40-9.3-40-20.8s17.9-20.8,40-20.8S301.5,250.8,301.5,262.3z"/>
	<path class="st0" d="M421.5,262.3c0,11.5-17.9,20.8-40,20.8s-40-9.3-40-20.8s17.9-20.8,40-20.8S421.5,250.8,421.5,262.3z"/>
	<path class="st0" d="M241.5,340.7c0,11.5-17.9,20.8-40,20.8s-40-9.3-40-20.8s17.9-20.8,40-20.8S241.5,329.2,241.5,340.7z"/>
	<path class="st0" d="M341.5,342.3c0,11.5-17.9,20.8-40,20.8s-40-9.3-40-20.8s17.9-20.8,40-20.8S341.5,330.8,341.5,342.3z"/>
	<path class="st0" d="M281.5,422.3c0,11.5-17.9,20.8-40,20.8s-40-9.3-40-20.8s17.9-20.8,40-20.8S281.5,410.8,281.5,422.3z"/>
	<path class="st0" d="M401.5,422.3c0,11.5-17.9,20.8-40,20.8s-40-9.3-40-20.8s17.9-20.8,40-20.8S401.5,410.8,401.5,422.3z"/>
	<path class="st0" d="M361.5,502.3c0,11.5-17.9,20.8-40,20.8s-40-9.3-40-20.8s17.9-20.8,40-20.8S361.5,490.8,361.5,502.3z"/>
	<path class="st1" d="M320.6,205.1l-43.2,25.5"/>
	<path class="st3" d="M264.3,238.4l9.9-11.2l4.7,8L264.3,238.4z"/>
	<path class="st1" d="M365.6,230.6l-43.2-25.5"/>
	<path class="st3" d="M378.7,238.4l-14.6-3.2l4.7-8L378.7,238.4z"/>
	<path class="st1" d="M250,284.4l-33.4,23.4"/>
	<path class="st3" d="M204.1,316.5l9-12l5.3,7.6L204.1,316.5z"/>
	<path class="st1" d="M271.4,284.6l22.6,22.6"/>
	<path class="st3" d="M304.8,318.1l-13.4-6.8l6.5-6.6L304.8,318.1z"/>
	<path class="st1" d="M311.4,364.6l22.6,22.6"/>
	<path class="st3" d="M344.8,398.1l-13.4-6.8l6.5-6.6L344.8,398.1z"/>
	<path class="st1" d="M300.7,365.1l-39.2,25.1"/>
	<path class="st3" d="M248.6,398.5l9.5-11.6l5,7.8L248.6,398.5z"/>
	<path class="st1" d="M242.4,445l57.9,27.3"/>
	<path class="st3" d="M314.1,478.8l-14.9-1.9l4-8.4L314.1,478.8z"/>
</g>
<text transform="matrix(1 0 0 1 90.3503 111.7612)" class="st4">##1</text>
<text transform="matrix(1 0 0 1 210.9954 113.1414)" class="st4">##8</text>
<text transform="matrix(1 0 0 1 28.1608 191.5414)" class="st4">##0</text>
<text transform="matrix(1 0 0 1 130.9954 193.1414)" class="st4">##4</text>
<text transform="matrix(1 0 0 1 66.1608 273.1414)" class="st4">##2</text>
<text transform="matrix(1 0 0 1 191.1608 273.1414)" class="st4">##5</text>
<text transform="matrix(1 0 0 1 148.1608 353.1413)" class="st4">##3</text>
<text transform="matrix(1 0 0 1 150.3504 31.7612)" class="st4">##7</text>
</svg>
