<?xml version="1.0" encoding="utf-8"?>
<!-- Generator: Adobe Illustrator 25.4.1, SVG Export Plug-In . SVG Version: 6.00 Build 0)  -->
<svg version="1.1" id="Layer_1" xmlns:lucid="lucid"
	 xmlns="http://www.w3.org/2000/svg" xmlns:xlink="http://www.w3.org/1999/xlink" x="0px" y="0px" viewBox="0 0 323 364.6"
	 style="enable-background:new 0 0 323 364.6;" xml:space="preserve">
<style type="text/css">
	.st0{fill:#FFFFFF;stroke:#5E5E5E;stroke-width:3;}
	.st1{fill:none;stroke:#5E5E5E;stroke-width:2;}
	.st2{fill:#5E5E5E;}
	.st3{fill:#5E5E5E;stroke:#5E5E5E;stroke-width:2;}
	.st4{font-family:'MyriadPro-Regular';}
	.st5{font-size:30px;}
	.st6{font-size:23px;}
</style>
<g transform="translate(-160 -160)" lucid:page-tab-id="0_0">
	<path class="st0" d="M321.5,161.5c22.1,0,40,9.3,40,20.8s-17.9,20.8-40,20.8s-40-9.3-40-20.8S299.4,161.5,321.5,161.5z"/>
	<path class="st0" d="M381.5,241.5c22.1,0,40,9.3,40,20.8s-17.9,20.8-40,20.8s-40-9.3-40-20.8S359.4,241.5,381.5,241.5z"/>
	<path class="st0" d="M261.5,241.5c22.1,0,40,9.3,40,20.8s-17.9,20.8-40,20.8s-40-9.3-40-20.8S239.4,241.5,261.5,241.5z"/>
	<path class="st0" d="M441.5,319.9c22.1,0,40,9.3,40,20.8s-17.9,20.8-40,20.8s-40-9.3-40-20.8S419.4,319.9,441.5,319.9z"/>
	<path class="st0" d="M341.5,321.5c22.1,0,40,9.3,40,20.8s-17.9,20.8-40,20.8s-40-9.3-40-20.8S319.4,321.5,341.5,321.5z"/>
	<path class="st0" d="M201.5,321.5c22.1,0,40,9.3,40,20.8s-17.9,20.8-40,20.8s-40-9.3-40-20.8S179.4,321.5,201.5,321.5z"/>
	<path class="st0" d="M401.5,401.5c22.1,0,40,9.3,40,20.8s-17.9,20.8-40,20.8s-40-9.3-40-20.8S379.4,401.5,401.5,401.5z"/>
	<path class="st0" d="M321.5,481.5c22.1,0,40,9.3,40,20.8s-17.9,20.8-40,20.8s-40-9.3-40-20.8S299.4,481.5,321.5,481.5z"/>
	<path class="st1" d="M365.6,230.6l-43.2-25.5"/>
	<path class="st2" d="M322.7,204.5l-0.9,1.5l-2.5-1.5l2.1,0.1L322.7,204.5z"/>
	<path class="st3" d="M364.1,235.1l4.7-8l9.9,11.2L364.1,235.1z"/>
	<path class="st1" d="M320.6,205.1l-43.2,25.5"/>
	<path class="st3" d="M274.2,227.1l4.7,8l-14.6,3.2L274.2,227.1z"/>
	<path class="st2" d="M323.7,204.5l-2.6,1.5l-0.8-1.4l1.2,0L323.7,204.5z"/>
	<path class="st1" d="M217.4,310.6l43.2-25.5"/>
	<path class="st2" d="M263.7,284.5l-2.6,1.5l-0.8-1.4l1.2,0L263.7,284.5z"/>
	<path class="st3" d="M214.2,307.1l4.7,8l-14.6,3.2L214.2,307.1z"/>
	<path class="st1" d="M426.4,307.8L393,284.4"/>
	<path class="st2" d="M393.5,283.5L393.5,283.5l-1.1,1.7l-1.7-1.2l0.4,0L393.5,283.5z"/>
	<path class="st3" d="M424.5,312.2l5.3-7.6l9,12L424.5,312.2z"/>
	<path class="st1" d="M348.9,307.3l22.6-22.6"/>
	<path class="st2" d="M371,283.8l2.5,0.3l-1.3,1.3l-1.4-1.4L371,283.8z"/>
	<path class="st3" d="M345,304.7l6.5,6.6l-13.4,6.8L345,304.7z"/>
	<path class="st1" d="M381.6,390.3l-39.2-25.1"/>
	<path class="st2" d="M342.8,364.5l-1,1.5l-2.3-1.5l2,0.1L342.8,364.5z"/>
	<path class="st3" d="M379.9,394.7l5-7.8l9.5,11.6L379.9,394.7z"/>
	<path class="st1" d="M342.7,472.3l57.9-27.3"/>
	<path class="st2" d="M404.2,444.4l-3.2,1.5l-0.6-1.4l1.2,0L404.2,444.4z"/>
	<path class="st3" d="M339.8,468.5l4,8.4l-14.9,1.9L339.8,468.5z"/>
</g>
<text transform="matrix(1 0 0 1 150.3506 31.7613)" class="st4 st5">E</text>
<text transform="matrix(1 0 0 1 90.3505 111.7615)" class="st4 st5">C</text>
<text transform="matrix(1 0 0 1 30.3504 191.7616)" class="st4 st5">B</text>
<text transform="matrix(1 0 0 1 210.3504 111.7617)" class="st4 st5">U</text>
<text transform="matrix(1 0 0 1 170.3504 191.7618)" class="st4 st5">K</text>
<text transform="matrix(1 0 0 1 270.3503 190.1619)" class="st4 st5">W</text>
<text transform="matrix(1 0 0 1 230.3503 271.7617)" class="st4 st5">T</text>
<text transform="matrix(1 0 0 1 150.3502 351.7617)" class="st4 st5">L</text>
<text transform="matrix(1 0 0 1 10.1916 242.4136)"><tspan x="0" y="0" class="st4 st6">Insert G</tspan><tspan x="0" y="27.6" class="st4 st6">Then remove E</tspan></text>
</svg>

