<?xml version="1.0" encoding="utf-8"?>
<svg version="1.1" id="Layer_1" xmlns:lucid="lucid"
	 xmlns="http://www.w3.org/2000/svg" xmlns:xlink="http://www.w3.org/1999/xlink" x="0px" y="0px" viewBox="0 0 323 364.6"
	 style="enable-background:new 0 0 323 364.6;" xml:space="preserve">
<style type="text/css">
	.st0{fill:#FFFFFF;stroke:#5E5E5E;stroke-width:3;}
	.st1{fill:none;stroke:#5E5E5E;stroke-width:2;}
	.st3{fill:#5E5E5E;stroke:#5E5E5E;stroke-width:2;}
	.st4{font-family:'Arial';font-size:30px;}
</style>
<g transform="translate(-160 -160)" lucid:page-tab-id="0_0">
	<path class="st0" d="M321.5,161.5c22.1,0,40,9.3,40,20.8s-17.9,20.8-40,20.8s-40-9.3-40-20.8S299.4,161.5,321.5,161.5z"/>
	<path class="st0" d="M381.5,241.5c22.1,0,40,9.3,40,20.8s-17.9,20.8-40,20.8s-40-9.3-40-20.8S359.4,241.5,381.5,241.5z"/>
	<path class="st0" d="M261.5,241.5c22.1,0,40,9.3,40,20.8s-17.9,20.8-40,20.8s-40-9.3-40-20.8S239.4,241.5,261.5,241.5z"/>
	<path class="st0" d="M441.5,319.9c22.1,0,40,9.3,40,20.8s-17.9,20.8-40,20.8s-40-9.3-40-20.8S419.4,319.9,441.5,319.9z"/>
	<path class="st0" d="M341.5,321.5c22.1,0,40,9.3,40,20.8s-17.9,20.8-40,20.8s-40-9.3-40-20.8S319.4,321.5,341.5,321.5z"/>
	<path class="st0" d="M401.5,401.5c22.1,0,40,9.3,40,20.8s-17.9,20.8-40,20.8s-40-9.3-40-20.8S379.4,401.5,401.5,401.5z"/>
	<path class="st0" d="M281.5,401.5c22.1,0,40,9.3,40,20.8s-17.9,20.8-40,20.8s-40-9.3-40-20.8S259.4,401.5,281.5,401.5z"/>
	<path class="st0" d="M321.5,481.5c22.1,0,40,9.3,40,20.8s-17.9,20.8-40,20.8s-40-9.3-40-20.8S299.4,481.5,321.5,481.5z"/>
	<path class="st1" d="M365.6,230.6l-43.2-25.5"/>
	<path class="st3" d="M364.1,235.1l4.7-8l9.9,11.2L364.1,235.1z"/>
	<path class="st1" d="M320.6,205.1l-43.2,25.5"/>
	<path class="st3" d="M274.2,227.1l4.7,8l-14.6,3.2L274.2,227.1z"/>
	<path class="st1" d="M426.4,307.8L393,284.4"/>
	<path class="st3" d="M424.5,312.2l5.3-7.6l9,12L424.5,312.2z"/>
	<path class="st1" d="M348.9,307.3l22.6-22.6"/>
	<path class="st3" d="M345,304.7l6.5,6.6l-13.4,6.8L345,304.7z"/>
	<path class="st1" d="M308.9,387.3l22.6-22.6"/>
	<path class="st3" d="M305,384.7l6.5,6.6l-13.4,6.8L305,384.7z"/>
	<path class="st1" d="M381.6,390.3l-39.2-25.1"/>
	<path class="st3" d="M379.9,394.7l5-7.8l9.5,11.6L379.9,394.7z"/>
	<path class="st1" d="M342.7,472.3l57.9-27.3"/>
	<path class="st3" d="M339.8,468.5l4,8.4l-14.9,1.9L339.8,468.5z"/>
</g>
<text transform="matrix(1 0 0 1 150.3506 31.7613)" class="st4">##7</text>
<text transform="matrix(1 0 0 1 90.3505 111.7615)" class="st4">##8</text>
<text transform="matrix(1 0 0 1 210.3504 111.7617)" class="st4">##1</text>
<text transform="matrix(1 0 0 1 170.3504 191.7618)" class="st4">##4</text>
<text transform="matrix(1 0 0 1 270.3503 190.1619)" class="st4">##0</text>
<text transform="matrix(1 0 0 1 230.3503 271.7617)" class="st4">##2</text>
<text transform="matrix(1 0 0 1 110.3503 271.7617)" class="st4">##5</text>
<text transform="matrix(1 0 0 1 150.3502 351.7617)" class="st4">##3</text>
</svg>
