<?xml version="1.0" encoding="utf-8"?>
<!-- Generator: Adobe Illustrator 25.4.1, SVG Export Plug-In . SVG Version: 6.00 Build 0)  -->
<svg version="1.1" id="Layer_1" xmlns:lucid="lucid"
	 xmlns="http://www.w3.org/2000/svg" xmlns:xlink="http://www.w3.org/1999/xlink" x="0px" y="0px" viewBox="0 0 323 364.6"
	 style="enable-background:new 0 0 323 364.6;" xml:space="preserve">
<style type="text/css">
	.st0{fill:#FFFFFF;stroke:#5E5E5E;stroke-width:3;}
	.st1{fill:none;stroke:#5E5E5E;stroke-width:2;}
	.st2{fill:#5E5E5E;}
	.st3{fill:#5E5E5E;stroke:#5E5E5E;stroke-width:2;}
	.st4{font-family:'MyriadPro-Regular';}
	.st5{font-size:30px;}
	.st6{font-size:21px;}
</style>
<g transform="translate(-160 -160)" lucid:page-tab-id="0_0">
	<path class="st0" d="M361.5,182.3c0,11.5-17.9,20.8-40,20.8s-40-9.3-40-20.8s17.9-20.8,40-20.8S361.5,170.8,361.5,182.3z"/>
	<path class="st0" d="M301.5,262.3c0,11.5-17.9,20.8-40,20.8s-40-9.3-40-20.8s17.9-20.8,40-20.8S301.5,250.8,301.5,262.3z"/>
	<path class="st0" d="M421.5,262.3c0,11.5-17.9,20.8-40,20.8s-40-9.3-40-20.8s17.9-20.8,40-20.8S421.5,250.8,421.5,262.3z"/>
	<path class="st0" d="M241.5,340.7c0,11.5-17.9,20.8-40,20.8s-40-9.3-40-20.8s17.9-20.8,40-20.8S241.5,329.2,241.5,340.7z"/>
	<path class="st0" d="M341.5,342.3c0,11.5-17.9,20.8-40,20.8s-40-9.3-40-20.8s17.9-20.8,40-20.8S341.5,330.8,341.5,342.3z"/>
	<path class="st0" d="M481.5,342.3c0,11.5-17.9,20.8-40,20.8s-40-9.3-40-20.8s17.9-20.8,40-20.8S481.5,330.8,481.5,342.3z"/>
	<path class="st0" d="M281.5,422.3c0,11.5-17.9,20.8-40,20.8s-40-9.3-40-20.8s17.9-20.8,40-20.8S281.5,410.8,281.5,422.3z"/>
	<path class="st0" d="M361.5,502.3c0,11.5-17.9,20.8-40,20.8s-40-9.3-40-20.8s17.9-20.8,40-20.8S361.5,490.8,361.5,502.3z"/>
	<path class="st1" d="M320.6,205.1l-43.2,25.5"/>
	<path class="st2" d="M321.5,204.6l2.1-0.1l-2.5,1.5l-0.9-1.5L321.5,204.6z"/>
	<path class="st3" d="M264.3,238.4l9.9-11.2l4.7,8L264.3,238.4z"/>
	<path class="st1" d="M365.6,230.6l-43.2-25.5"/>
	<path class="st3" d="M378.7,238.4l-14.6-3.2l4.7-8L378.7,238.4z"/>
	<path class="st2" d="M321.5,204.6l1.2,0l-0.8,1.4l-2.6-1.5L321.5,204.6z"/>
	<path class="st1" d="M382.4,285.1l43.2,25.5"/>
	<path class="st2" d="M381.5,284.6l1.2,0l-0.8,1.4l-2.6-1.5L381.5,284.6z"/>
	<path class="st3" d="M438.7,318.4l-14.6-3.2l4.7-8L438.7,318.4z"/>
	<path class="st1" d="M250,284.4l-33.4,23.4"/>
	<path class="st2" d="M251.9,284l0.4,0l-1.7,1.2l-1.1-1.6l0,0L251.9,284z"/>
	<path class="st3" d="M204.1,316.5l9-12l5.3,7.6L204.1,316.5z"/>
	<path class="st1" d="M271.4,284.6l22.6,22.6"/>
	<path class="st2" d="M272.1,283.9l-1.4,1.4l-1.3-1.3l2.5-0.3L272.1,283.9z"/>
	<path class="st3" d="M304.8,318.1l-13.4-6.8l6.5-6.6L304.8,318.1z"/>
	<path class="st1" d="M300.7,365.1l-39.2,25.1"/>
	<path class="st2" d="M301.5,364.6l2-0.1l-2.3,1.5l-1-1.5L301.5,364.6z"/>
	<path class="st3" d="M248.6,398.5l9.5-11.6l5,7.8L248.6,398.5z"/>
	<path class="st1" d="M242.4,445l57.9,27.3"/>
	<path class="st2" d="M241.5,444.6l1.2,0l-0.6,1.4l-3.2-1.5L241.5,444.6z"/>
	<path class="st3" d="M314.1,478.8l-14.9-1.9l4-8.4L314.1,478.8z"/>
</g>
<text transform="matrix(1 0 0 1 86.3503 111.7612)" class="st4 st5">G</text>
<text transform="matrix(1 0 0 1 206.9954 113.1414)" class="st4 st5">V</text>
<text transform="matrix(1 0 0 1 24.1608 191.5414)" class="st4 st5">D</text>
<text transform="matrix(1 0 0 1 126.9954 193.1414)" class="st4 st5">K</text>
<text transform="matrix(1 0 0 1 266.9955 193.1414)" class="st4 st5">W</text>
<text transform="matrix(1 0 0 1 64.1608 273.1414)" class="st4 st5">I</text>
<text transform="matrix(1 0 0 1 144.1608 353.1413)" class="st4 st5">J</text>
<text transform="matrix(1 0 0 1 146.3504 31.7612)" class="st4 st5">Q</text>
<text transform="matrix(1 0 0 1 160.6404 242.4136)"><tspan x="0" y="0" class="st4 st6">Insert M</tspan><tspan x="0" y="25.2" class="st4 st6">Then remove K</tspan></text>
</svg>

