<?xml version="1.0" encoding="utf-8"?>
<!-- Generator: Adobe Illustrator 24.1.2, SVG Export Plug-In . SVG Version: 6.00 Build 0)  -->
<svg version="1.1" id="Layer_1" xmlns="http://www.w3.org/2000/svg" xmlns:xlink="http://www.w3.org/1999/xlink" x="0px" y="0px"
	 viewBox="0 0 591.33 433.22" style="enable-background:new 0 0 591.33 433.22;" xml:space="preserve">
<style type="text/css">
	.st0{fill:none;stroke:#BE1E2D;stroke-width:2;stroke-miterlimit:10;}
	.st1{fill:#BE1E2D;}
	.st2{fill:#FFFFFF;stroke:#000000;stroke-width:2;stroke-miterlimit:10;}
	.st3{text-anchor:middle;}
	.st4{font-size:36px;}
</style>

	<g>
	<path class="st0" d="M268.09,126.18c-43.03-3.28-86.43,4.24-130.17,21.68"/>
	<path class="st1" d="M141.27,146.54l6.83,4.96l-0.16,0.25l-12.64,0.23c-4.12,0.75-8.25,1.5-12.37,2.25
		c3.43-2.41,6.86-4.82,10.29-7.23l9.04-8.84l0.27,0.02L141.27,146.54z"/>
</g>
<g>
	<path class="st0" d="M273.88,148.22c-49.14,29.5-89.87,67.76-120.5,119.48"/>
	<path class="st1" d="M155.25,264.64l8.43-0.24l0.02,0.29l-9.88,7.89c-2.81,3.11-5.62,6.22-8.43,9.33c1.25-4,2.49-8,3.74-12
		l1.77-12.52l0.23-0.15L155.25,264.64z"/>
</g>
<g>
	<path class="st0" d="M335.67,255.04c-54.68-5.13-109.04,6.87-163.18,31.56"/>
	<path class="st1" d="M175.77,285.15l7.04,4.65l-0.15,0.25l-12.62,0.78c-4.09,0.93-8.17,1.86-12.26,2.79
		c3.32-2.56,6.64-5.12,9.96-7.68l8.64-9.23l0.28,0.01L175.77,285.15z"/>
</g>
<g>
	<path class="st0" d="M466.42,349.87c-19.34-27.57-40.3-51.31-63.87-68.83"/>
	<path class="st1" d="M405.37,283.26l-0.53,8.42l-0.3-0.01l-6.97-10.55c-2.84-3.08-5.69-6.16-8.53-9.24
		c3.87,1.6,7.75,3.21,11.62,4.81l12.31,2.89l0.13,0.24L405.37,283.26z"/>
</g>
<g>
	<path class="st0" d="M549.42,190.14c6.56-44.48,4.48-86.19-12.36-123.18"/>
	<path class="st1" d="M538.52,70.25l-4.46,7.16l-0.26-0.15l-1.13-12.59c-1.04-4.06-2.08-8.12-3.12-12.18
		c2.65,3.25,5.3,6.5,7.94,9.75l9.46,8.39v0.28L538.52,70.25z"/>
</g>
<g>
	<path class="st0" d="M522.57,199.84C482.3,169.75,414.72,137,340.8,131.78"/>
	<path class="st1" d="M344.38,132.11l4.01,7.42l-0.25,0.15l-11.5-5.26c-4.04-1.11-8.08-2.22-12.13-3.33
		c4.13-0.69,8.27-1.38,12.4-2.07l11.97-4.06l0.24,0.14L344.38,132.11z"/>
</g>
<g>
	<path class="st0" d="M297.51,158.18c3.89,28.52,15.55,51.87,32.79,71.51"/>
	<path class="st1" d="M327.94,226.97l2.2-8.14l0.29,0.07l4.72,11.73c2.17,3.59,4.34,7.17,6.51,10.76
		c-3.48-2.34-6.95-4.69-10.43-7.03l-11.48-5.29l-0.08-0.26L327.94,226.97z"/>
</g>
<g>
	<path class="st0" d="M324.22,125.6c66.6-11.84,118.36-33.97,157.05-65.13"/>
	<path class="st1" d="M478.45,62.71l-8.01-2.65l0.08-0.28l11.97-4.06c3.7-1.97,7.4-3.93,11.11-5.9c-2.53,3.34-5.07,6.68-7.6,10.02
		l-5.93,11.17l-0.27,0.07L478.45,62.71z"/>
</g>
<g>
	<path class="st0" d="M91.87,194.52c-3.06,27.75,2.08,53.35,14.78,77"/>
	<path class="st1" d="M104.95,268.34l3.95-7.45l0.27,0.13l2.01,12.48c1.32,3.98,2.65,7.95,3.97,11.93
		c-2.87-3.06-5.74-6.11-8.61-9.17l-10.02-7.7l-0.02-0.27L104.95,268.34z"/>
</g>
<g>
	<path class="st0" d="M454.03,369.38c-35.26-1.42-90.58,4.1-128.88,14.88"/>
	<path class="st1" d="M328.62,383.31l6.34,5.56l-0.19,0.23l-12.61-0.92c-4.18,0.37-8.35,0.74-12.53,1.11
		c3.63-2.09,7.27-4.18,10.9-6.27l9.81-7.98l0.27,0.04L328.62,383.31z"/>
</g>
<g>
	<path class="st0" d="M523.32,237.06c-18.89,24.04-33.72,62.17-40.61,92.17"/>
	<path class="st1" d="M483.6,325.75l7.93-2.87l0.11,0.27l-6.89,10.6c-1.69,3.84-3.38,7.67-5.07,11.51
		c-0.07-4.19-0.15-8.38-0.22-12.57l-2.26-12.44l0.17-0.22L483.6,325.75z"/>
</g>
<g>
	<path class="st0" d="M515.97,221.34c-36.36,16.47-78.01,5.58-113.24,16.41"/>
	<path class="st1" d="M406.19,236.75l6.72,5.09l-0.17,0.24l-12.64-0.02c-4.14,0.67-8.28,1.33-12.42,2
		c3.48-2.34,6.95-4.68,10.43-7.03l9.21-8.66l0.27,0.02L406.19,236.75z"/>
</g>
<g>
	<path class="st0" d="M269.31,380.49c-21.56-23.57-58.96-49.46-92.91-63.41"/>
	<path class="st1" d="M179.71,318.48l1.6,8.28l-0.29,0.07l-9.39-8.47c-3.52-2.27-7.05-4.54-10.57-6.81
		c4.15,0.58,8.3,1.16,12.45,1.74l12.64-0.28l0.19,0.2L179.71,318.48z"/>
</g>
<g>
	<path class="st0" d="M342.41,277.87c-21.5,22.25-36.79,50.07-46.92,82.54"/>
	<path class="st1" d="M296.64,357l8.14-2.19l0.09,0.28l-7.77,9.98c-2.01,3.68-4.02,7.36-6.03,11.04c0.28-4.18,0.56-8.36,0.84-12.55
		l-1.2-12.59l0.19-0.2L296.64,357z"/>
</g>
<g>
	<path class="st2" d="M513.2,1c-15.66,0-28.35,12.69-28.35,28.35S497.54,57.7,513.2,57.7s28.35-12.69,28.35-28.35S528.85,1,513.2,1z
		"/>
	<text transform="matrix(1 0 0 1 512.1603 40.6822)" class="st3 st4">NODE_3</text>
</g>
<g>
	<path class="st2" d="M296.19,101.52c-15.66,0-28.35,12.69-28.35,28.35s12.69,28.35,28.35,28.35s28.35-12.69,28.35-28.35
		S311.85,101.52,296.19,101.52z"/>
	<text transform="matrix(1 0 0 1 295.1547 141.2015)" class="st3 st4">NODE_2</text>
</g>
<g>
	<path class="st2" d="M97.47,138.38c-15.66,0-28.35,12.69-28.35,28.35s12.69,28.35,28.35,28.35s28.35-12.69,28.35-28.35
		S113.13,138.38,97.47,138.38z"/>
	<text transform="matrix(1 0 0 1 96.5 178.0666)" class="st3 st4">NODE_1</text>
</g>
<g>
	<path class="st2" d="M133.02,279.08c-15.66,0-28.35,12.69-28.35,28.35s12.69,28.35,28.35,28.35s28.35-12.69,28.35-28.35
		S148.67,279.08,133.02,279.08z"/>
	<text transform="matrix(1 0 0 1 132.9729 318.7634)" class="st3 st4">NODE_5</text>
</g>
<g>
	<path class="st2" d="M363.71,230.83c-15.66,0-28.35,12.69-28.35,28.35s12.69,28.35,28.35,28.35s28.35-12.69,28.35-28.35
		C392.06,243.52,379.37,230.83,363.71,230.83z"/>
	<text transform="matrix(1 0 0 1 364.6797 270.5149)" class="st3 st4">NODE_4</text>
</g>
<g>
	<path class="st2" d="M544.32,189.68c-15.66,0-28.35,12.69-28.35,28.35s12.69,28.35,28.35,28.35s28.35-12.69,28.35-28.35
		S559.97,189.68,544.32,189.68z"/>
	<text transform="matrix(1 0 0 1 542.2762 229.3617)" class="st3 st4">NODE_0</text>
</g>
<g>
	<path class="st2" d="M285.34,375.52c-15.66,0-28.35,12.69-28.35,28.35s12.69,28.35,28.35,28.35s28.35-12.69,28.35-28.35
		C313.69,388.21,300.99,375.52,285.34,375.52z"/>
	<text transform="matrix(1 0 0 1 283.6552 415.2077)" class="st3 st4">NODE_6</text>
</g>
<g>
	<path class="st2" d="M482.08,345.14c-15.66,0-28.35,12.69-28.35,28.35s12.69,28.35,28.35,28.35s28.35-12.69,28.35-28.35
		C510.43,357.84,497.73,345.14,482.08,345.14z"/>
	<text transform="matrix(1 0 0 1 482.0399 384.8293)" class="st3 st4">NODE_7</text>
</g>
</svg>
